<?xml version="1.0" encoding="UTF-8"?>
<svg id="uuid-35ef4915-30bd-4eb0-949a-fe054d85c109" data-name="Layer 2" xmlns="http://www.w3.org/2000/svg" viewBox="0 0 113.35 82.12">
  <defs>
    <style>
      .uuid-fdb94094-c8a2-4760-b4a2-8ed1794d13ca {
        fill: #fef5a2;
        stroke: #000;
        stroke-width: 2.13px;
      }

      .uuid-fdb94094-c8a2-4760-b4a2-8ed1794d13ca, .uuid-d580f717-9ba0-4d71-8991-a56d9abcc4b1 {
        stroke-miterlimit: 10;
      }

      .uuid-2d6dad93-279c-41b0-9fdf-a54ab8a19f93 {
        fill: #fff;
      }

      .uuid-d580f717-9ba0-4d71-8991-a56d9abcc4b1 {
        fill: #569ad3;
        stroke: #231f20;
        stroke-width: 1.42px;
      }
    </style>
  </defs>
  <g id="uuid-3e96af5f-9c09-44c4-b7af-94062acb906c" data-name="App Icon">
    <path class="uuid-fdb94094-c8a2-4760-b4a2-8ed1794d13ca" d="M75.53,81.06H16.23c-.81,0-1.65-.65-1.65-1.59,0-5.65-.74-54.75-.74-54.75,0,0,4.58-15.75,4.8-21.78.04-1.12.88-1.97,1.84-1.86,5.69.65,23.47,6,42.14,6s33.44-2.96,38.9-3.61c.92-.11,1.73.66,1.83,1.73l4.48,50.74c0,20.81-14.46,25.13-32.29,25.13Z"/>
    <path class="uuid-d580f717-9ba0-4d71-8991-a56d9abcc4b1" d="M26.76,8.07L.76,15.79c-.57,10.2,4.06,19.93,4.25,19.84,13.62-6.47,29.49-10.39,29.49-10.39l-7.74-17.17Z"/>
    <path class="uuid-fdb94094-c8a2-4760-b4a2-8ed1794d13ca" d="M25.25,80.47c-.81,0-1.5-.67-1.65-1.59-.92-5.65-3.42-20.25-4.88-38.78-1.51-19.02-.31-31.14-.08-37.17.04-1.12.88-1.97,1.84-1.86,5.69.65,27.83,3.6,46.5,3.6s33.44-1.15,38.9-1.8c.92-.11,1.73.66,1.83,1.73,0,0,.12,18.45,1.26,36.56.99,15.65,1.86,30.31,3.27,36.39.35,1.49-.79,2.9-2.31,2.9H25.25Z"/>
    <g>
      <ellipse cx="45.35" cy="40.75" rx="7.15" ry="7.97"/>
      <circle class="uuid-2d6dad93-279c-41b0-9fdf-a54ab8a19f93" cx="47.93" cy="37.05" r="2.2"/>
    </g>
    <g>
      <ellipse cx="86.03" cy="40.75" rx="7.15" ry="7.97"/>
      <circle class="uuid-2d6dad93-279c-41b0-9fdf-a54ab8a19f93" cx="88.6" cy="37.05" r="2.2"/>
    </g>
    <path d="M53.62,50c8.48,2.99,17.33,2.88,25.83,0-6.69,6.73-19.16,6.81-25.83,0h0Z"/>
  </g>
</svg>